<svg width="71" height="32" viewBox="0 0 71 32" xmlns="http://www.w3.org/2000/svg"><g transform="translate(0 1)" fill="none" fill-rule="evenodd"><path d="M19.736 15.868H.897l1.794 2.506a.46.46 0 0 1 0 .515c-.052.074-.132.111-.184.111-.053 0-.132-.037-.185-.11L.079 15.757a.46.46 0 0 1 0-.516l2.243-3.131c.105-.148.264-.148.37 0a.46.46 0 0 1 0 .515L.896 15.132h18.84c.157 0 .263.147.263.368s-.106.368-.264.368zM51.217 15.075h18.84l-1.795-2.506a.46.46 0 0 1 0-.515c.053-.074.132-.111.185-.111.053 0 .132.037.185.11l2.242 3.132a.46.46 0 0 1 0 .516l-2.242 3.132c-.106.147-.264.147-.37 0a.46.46 0 0 1 0-.516l1.794-2.506H51.217c-.158 0-.263-.147-.263-.368s.105-.368.263-.368z" fill="#000" fill-rule="nonzero"/><circle stroke="#EFE3D0" stroke-width="2" fill="#FFF" cx="35" cy="15" r="15"/></g></svg>