
<svg width="71px" height="32px" viewBox="0 0 71 32" version="1.1" xmlns="http://www.w3.org/2000/svg" xmlns:xlink="http://www.w3.org/1999/xlink">
    <!-- Generator: Sketch 50.2 (55047) - http://www.bohemiancoding.com/sketch -->
    <desc>Created with Sketch.</desc>
    <defs></defs>
    <g id="Page-1" stroke="none" stroke-width="1" fill="none" fill-rule="evenodd">
        <g id="Group-2" transform="translate(0.000000, 1.000000)">
            <path d="M19.7361478,15.8684211 L0.897097625,15.8684211 L2.69129288,18.3736842 C2.79683377,18.5210526 2.79683377,18.7421053 2.69129288,18.8894737 C2.63852243,18.9631579 2.55936675,19 2.50659631,19 C2.45382586,19 2.37467018,18.9631579 2.32189974,18.8894737 L0.0791556728,15.7578947 C-0.0263852243,15.6105263 -0.0263852243,15.3894737 0.0791556728,15.2421053 L2.32189974,12.1105263 C2.42744063,11.9631579 2.58575198,11.9631579 2.69129288,12.1105263 C2.79683377,12.2578947 2.79683377,12.4789474 2.69129288,12.6263158 L0.897097625,15.1315789 L19.7361478,15.1315789 C19.8944591,15.1315789 20,15.2789474 20,15.5 C20,15.7210526 19.8944591,15.8684211 19.7361478,15.8684211 Z" id="Shape" fill="white" fill-rule="nonzero"></path>
            <path d="M70.6896792,15.8114588 L51.8506291,15.8114588 L53.6448243,18.316722 C53.7503652,18.4640904 53.7503652,18.685143 53.6448243,18.8325115 C53.5920539,18.9061957 53.5128982,18.9430378 53.4601278,18.9430378 C53.4073573,18.9430378 53.3282016,18.9061957 53.2754312,18.8325115 L51.0326871,15.7009325 C50.9271462,15.5535641 50.9271462,15.3325115 51.0326871,15.185143 L53.2754312,12.0535641 C53.3809721,11.9061957 53.5392834,11.9061957 53.6448243,12.0535641 C53.7503652,12.2009325 53.7503652,12.4219851 53.6448243,12.5693536 L51.8506291,15.0746167 L70.6896792,15.0746167 C70.8479906,15.0746167 70.9535315,15.2219851 70.9535315,15.4430378 C70.9535315,15.6640904 70.8479906,15.8114588 70.6896792,15.8114588 Z" id="Shape" fill="white" fill-rule="nonzero" transform="translate(60.953531, 15.443038) rotate(180.000000) translate(-60.953531, -15.443038) "></path>
            <circle id="Oval" stroke="white" stroke-width="2" cx="35" cy="15" r="15"></circle>
        </g>
    </g>
</svg>