<?xml version="1.0" encoding="utf-8"?>
<!-- Generator: Adobe Illustrator 22.0.1, SVG Export Plug-In . SVG Version: 6.00 Build 0)  -->
<svg version="1.1" id="Layer_1" xmlns="http://www.w3.org/2000/svg" xmlns:xlink="http://www.w3.org/1999/xlink" x="0px" y="0px"
	 viewBox="0 0 400 160" style="enable-background:new 0 0 400 160;" xml:space="preserve">
<style type="text/css">
	.st0{fill:#F7931E;}
</style>
<g>
	<path d="M32.8,108.5V57.8h6.5L64,96.7l-0.8,0.9V57.8h7v50.7h-6.5L39,70.3l0.8-0.9v39.2H32.8z"/>
	<path d="M97.3,109.1c-5,0-9-1.4-11.7-4.2c-2.8-2.8-4.2-6.8-4.2-12v-4.1c0-5.4,1.3-9.6,4-12.5c2.7-3,6.4-4.4,11.3-4.4
		c4.6,0,8.1,1.7,10.6,5c2.5,3.4,3.8,8.1,3.8,14.1v2.4H86.6v-5.7h17.7c-0.2-2.9-1-5.2-2.3-6.9c-1.3-1.7-3.1-2.5-5.3-2.5
		c-2.7,0-4.8,0.9-6.2,2.7c-1.5,1.8-2.2,4.3-2.2,7.5V93c0,3,0.8,5.3,2.4,6.9c1.6,1.6,3.8,2.4,6.7,2.4c3,0,5.7-1.1,8.1-3.3l4.7,4.7
		c-1.8,1.7-3.8,3.1-6,4C101.8,108.6,99.5,109.1,97.3,109.1z"/>
	<path d="M133.2,108.6h-5.6l-11.1-36.2h7.2l7,25.9l9.6-25.9h3.8l9.3,25.9l6.6-25.9h7.2l-11.1,36.2h-5.6L142,83.7L133.2,108.6z"/>
	<path d="M185,109.1c-3.1,0-5.9-0.5-8.4-1.4c-2.5-0.9-4.7-2.4-6.7-4.2l4.2-5.2c3.8,3,7.5,4.5,11.2,4.5c2.9,0,5.1-0.4,6.6-1.3
		c1.5-0.9,2.2-2.2,2.2-3.9c0-1.3-0.5-2.3-1.4-2.9s-2.2-0.9-3.7-1.1c-1.5-0.2-3.2-0.3-4.9-0.5c-1.5-0.1-2.9-0.3-4.4-0.5
		c-1.4-0.3-2.8-0.7-3.9-1.3c-1.2-0.6-2.1-1.6-2.8-2.8c-0.7-1.3-1.1-2.9-1.1-5.1c0-3.8,1.2-6.7,3.6-8.6c2.4-1.9,6-2.9,10.9-2.9
		c2.7,0,5.2,0.4,7.6,1.2c2.4,0.8,4.6,1.9,6.7,3.5l-4.3,5.2c-3.4-2.3-6.7-3.5-9.9-3.5c-2.6,0-4.6,0.4-5.9,1.2c-1.3,0.8-2,2.1-2,3.7
		c0,1.1,0.4,1.9,1.3,2.4c0.8,0.5,1.9,0.8,3.3,0.9s2.8,0.3,4.4,0.3c1.5,0.1,3,0.3,4.6,0.5c1.5,0.2,3,0.7,4.3,1.4s2.3,1.7,3.1,3.1
		c0.8,1.4,1.2,3.2,1.2,5.6c0,3.9-1.3,6.8-4,8.7C194.3,108.1,190.3,109.1,185,109.1z"/>
	<path class="st0" d="M209.2,108.6V57.8h7.1v50.7H209.2z M213.4,108.6V102h13.7c3.8,0,6.4-0.7,8-2.2s2.4-3.3,2.4-5.7V94
		c0-2.5-0.7-4.5-2-6c-1.3-1.5-3.5-2.3-6.6-2.3h-15.5v-6.4h15.5c5.3,0,8-2.4,8-7.3c0-5-3-7.6-8.9-7.6h-14.5v-6.6h15.8
		c5,0,8.7,1.2,11.2,3.7c2.4,2.5,3.7,5.8,3.7,10c0,2.5-0.7,4.8-2.2,6.9c-1.5,2.1-3.8,3.5-7,4.1c3.1,0.5,5.6,1.9,7.3,4.2
		c1.7,2.3,2.6,4.9,2.6,7.9v0.1c0,4.1-1.3,7.5-4,10c-2.7,2.5-6.3,3.8-10.9,3.8H213.4z"/>
	<path class="st0" d="M261.3,72.4v22c0,2.5,0.6,4.5,1.9,5.9c1.3,1.4,3.1,2.1,5.5,2.1c2.3,0,4.1-0.6,5.4-1.9c1.3-1.2,1.9-3,1.9-5.3
		l0.5,7.6c-0.7,1.6-1.8,3.1-3.4,4.4s-3.8,1.9-6.4,1.9c-4,0-7.1-1.3-9.3-3.9c-2.2-2.6-3.3-6.2-3.3-10.9v-22H261.3z M276,108.6V72.4
		h7.1v36.2H276z"/>
	<path class="st0" d="M318.9,72.4v6L301.5,102h18.4v6.6h-27v-6.1L310.7,79h-17.4v-6.6H318.9z"/>
	<path class="st0" d="M354.2,72.4v6L336.8,102h18.4v6.6h-27v-6.1L346.1,79h-17.4v-6.6H354.2z"/>
</g>
<rect x="83" y="35" width="116" height="24"/>
<rect x="32" y="35" width="341" height="9"/>
<rect x="32" y="124" width="341" height="9"/>
</svg>
